{
  "asset": {
    "generator": "Khronos glTF Blender I/O v4.5.47",
    "version": "2.0"
  },
  "scene": 0,
  "scenes": [
    {
      "name": "Scene",
      "nodes": [
        0
      ]
    }
  ],
  "nodes": [
    {
      "mesh": 0,
      "name": "sphere_gltf"
    }
  ],
  "materials": [
    {
      "doubleSided": true,
      "name": "plank_flooring_04",
      "normalTexture": {
        "index": 0
      },
      "pbrMetallicRoughness": {
        "baseColorTexture": {
          "index": 1
        },
        "metallicFactor": 0,
        "metallicRoughnessTexture": {
          "index": 2
        }
      }
    }
  ],
  "meshes": [
    {
      "name": "Sphere.001",
      "primitives": [
        {
          "attributes": {
            "POSITION": 0,
            "NORMAL": 1,
            "TEXCOORD_0": 2
          },
          "indices": 3,
          "material": 0
        }
      ]
    }
  ],
  "textures": [
    {
      "sampler": 0,
      "source": 0
    },
    {
      "sampler": 0,
      "source": 1
    },
    {
      "sampler": 0,
      "source": 2
    }
  ],
  "images": [
    {
      "mimeType": "image/jpeg",
      "name": "plank_flooring_04_nor_gl",
      "uri": "textures/plank_flooring_04_nor_gl_4k.jpg"
    },
    {
      "mimeType": "image/jpeg",
      "name": "plank_flooring_04_diff",
      "uri": "textures/plank_flooring_04_diff_4k.jpg"
    },
    {
      "mimeType": "image/jpeg",
      "name": "plank_flooring_04_rough",
      "uri": "textures/plank_flooring_04_arm_4k.jpg"
    }
  ],
  "accessors": [
    {
      "bufferView": 0,
      "componentType": 5126,
      "count": 53834,
      "max": [
        1.0225484371185303,
        1.022710919380188,
        1.0228395462036133
      ],
      "min": [
        -1.0225483179092407,
        -1.0226997137069702,
        -1.0228419303894043
      ],
      "type": "VEC3"
    },
    {
      "bufferView": 1,
      "componentType": 5126,
      "count": 53834,
      "type": "VEC3"
    },
    {
      "bufferView": 2,
      "componentType": 5126,
      "count": 53834,
      "type": "VEC2"
    },
    {
      "bufferView": 3,
      "componentType": 5123,
      "count": 322170,
      "type": "SCALAR"
    }
  ],
  "bufferViews": [
    {
      "buffer": 0,
      "byteLength": 646008,
      "byteOffset": 0,
      "target": 34962
    },
    {
      "buffer": 0,
      "byteLength": 646008,
      "byteOffset": 646008,
      "target": 34962
    },
    {
      "buffer": 0,
      "byteLength": 430672,
      "byteOffset": 1292016,
      "target": 34962
    },
    {
      "buffer": 0,
      "byteLength": 644340,
      "byteOffset": 1722688,
      "target": 34963
    }
  ],
  "samplers": [
    {
      "magFilter": 9729,
      "minFilter": 9987
    }
  ],
  "buffers": [
    {
      "byteLength": 2367028,
      "uri": "plank_flooring_04.bin"
    }
  ]
}